<?xml version="1.0" encoding="UTF-8"?>
<svg version="1.1" xmlns="http://www.w3.org/2000/svg" width="512" height="512">
<path d="M0 0 C1.70630139 1.67602055 3.43243013 3.32916294 5.16308594 4.97998047 C12.26417149 11.82542281 18.55687438 19.05454605 24.44238281 26.96728516 C25.28346957 28.09785336 26.13084357 29.22377968 26.98535156 30.34423828 C64.45402251 79.48104527 78.41788919 142.94072292 70.33837891 203.671875 C67.20361072 224.8524466 61.29031726 245.10003544 52.73339844 264.70263672 C52.4164502 265.43820801 52.09950195 266.1737793 51.77294922 266.93164062 C41.22957818 291.1721023 25.95477178 313.15273918 7.43603516 331.96923828 C5.7600146 333.67553967 4.10687222 335.40166841 2.45605469 337.13232422 C-4.38938765 344.23340978 -11.61851089 350.52611267 -19.53125 356.41162109 C-20.6618182 357.25270785 -21.78774452 358.10008185 -22.90820312 358.95458984 C-71.28663418 395.8449705 -134.20658467 410.3746928 -194.1105957 402.50512695 C-243.20070797 395.57024589 -289.05934811 374.31777094 -324.53320312 339.40527344 C-326.23950452 337.72925289 -327.96563326 336.0761105 -329.69628906 334.42529297 C-336.79737462 327.57985063 -343.09007751 320.35072739 -348.97558594 312.43798828 C-349.81667269 311.30742008 -350.6640467 310.18149376 -351.51855469 309.06103516 C-388.31411298 260.80695515 -402.59528691 198.46620736 -395.26660156 138.70263672 C-392.25812718 116.4830639 -386.22843033 95.23282518 -377.26660156 74.70263672 C-376.94965332 73.96706543 -376.63270508 73.23149414 -376.30615234 72.47363281 C-366.18665209 49.20770039 -351.65223173 27.44466936 -333.86767578 9.33447266 C-332.12318838 7.55646811 -330.40078994 5.75828331 -328.67675781 3.96044922 C-321.24366257 -3.71139434 -313.56542247 -10.69344058 -304.96972656 -17.03857422 C-303.30625225 -18.26805724 -301.66132605 -19.51952541 -300.01660156 -20.77392578 C-225.51242137 -76.68808809 -117.72435637 -79.56871548 0 0 Z " fill="#4DA0DB" transform="translate(418.2666015625,86.29736328125)"/>
<path d="M0 0 C4.16017768 1.17592463 8.26302466 2.51403011 12.37109375 3.859375 C13.56622086 4.24563049 14.76134796 4.63188599 15.99269104 5.02984619 C19.16563948 6.05630436 22.33694588 7.08754841 25.50750732 8.12133789 C29.92302866 9.55961846 34.34169121 10.98822627 38.75959778 12.41915894 C41.19510236 13.20815726 43.63039752 13.99780236 46.06547546 14.78811646 C54.69222967 17.58584684 63.33527626 20.32232395 72 23 C74.77561924 23.86175413 77.54541161 24.73590275 80.3125 25.625 C82.13201172 26.20121094 82.13201172 26.20121094 83.98828125 26.7890625 C88.54177574 28.61990983 88.54177574 28.61990983 90 31 C89.8046875 33.26953125 89.8046875 33.26953125 89 36 C88.71382812 37.07636719 88.42765625 38.15273437 88.1328125 39.26171875 C87.80023438 40.39222656 87.46765625 41.52273437 87.125 42.6875 C86.63386719 44.39486328 86.63386719 44.39486328 86.1328125 46.13671875 C85 49 85 49 82 51 C79.36 50.67 76.72 50.34 74 50 C70.37 58.91 66.74 67.82 63 77 C66.34125 77.7734375 66.34125 77.7734375 69.75 78.5625 C77.49139288 80.41584194 84.91107297 82.97037744 92.34667969 85.80102539 C93.55952637 86.24949829 93.55952637 86.24949829 94.796875 86.70703125 C95.51198242 86.9800708 96.22708984 87.25311035 96.96386719 87.53442383 C99.34218098 88.0782421 100.72043636 87.81479248 103 87 C103.33 86.67 103.66 86.34 104 86 C110.26149342 86.4509479 115.80151828 88.02693957 121.73046875 90.01953125 C122.64274734 90.31937424 123.55502594 90.61921722 124.49494934 90.92814636 C127.39478837 91.88272695 130.29120402 92.84722909 133.1875 93.8125 C136.05936641 94.76253478 138.93191388 95.71048533 141.80459595 96.65805054 C143.66113763 97.27050559 145.51740348 97.8837975 147.37338257 98.49795532 C153.36234275 100.47582229 159.36797279 102.37481037 165.40356445 104.20581055 C169.93757488 105.59265925 174.4167078 107.13227696 178.90625 108.65625 C186.76926322 111.26289778 194.61606631 113.72861223 202.70922852 115.51904297 C226.02589767 121.2378996 239.75028242 134.99153474 255.9319458 152.03405762 C258.64004036 154.85745162 261.40258988 157.6242885 264.16741085 160.39198494 C266.84133187 163.07610642 269.49068409 165.7833748 272.1321125 168.49944687 C273.38653654 169.78738502 274.6460888 171.07034999 275.91093254 172.34805679 C277.65873793 174.12480837 279.37350737 175.92799406 281.08178711 177.74267578 C281.59929535 178.25924744 282.11680359 178.77581909 282.6499939 179.30804443 C284.57004968 181.40033937 285.95329573 183.14158351 286.11085701 186.03753281 C281.64444393 225.15499177 254.50111493 266.03723104 227.70263672 293.26660156 C226.02661617 294.97290296 224.37347378 296.69903169 222.72265625 298.4296875 C215.87721391 305.53077306 208.64809067 311.82347595 200.73535156 317.70898438 C199.60478336 318.55007113 198.47885704 319.39744514 197.35839844 320.25195312 C163.5505306 346.03172908 122.16797319 361.00919702 80 365 C79.0920166 365.0928125 78.1840332 365.185625 77.24853516 365.28125 C62.59746107 366.62341317 62.59746107 366.62341317 56.8125 363.0078125 C54.25 360.4375 54.25 360.4375 52.265625 357.87109375 C50.36963055 355.46841113 48.69140148 353.79083167 46.38342285 351.83947754 C41.92082567 347.98187642 37.75456543 343.88143561 33.59960938 339.69726562 C32.80174515 338.89794113 32.00388092 338.09861664 31.18183899 337.27507019 C29.46257849 335.55202607 27.74447341 333.82782843 26.02742004 332.10258484 C23.30498045 329.36729749 20.57935569 326.63521982 17.85290527 323.90393066 C11.57500826 317.61367991 5.30178998 311.31877283 -0.97118378 305.02361298 C-7.18544023 298.78749181 -13.40170643 292.55339316 -19.62138367 286.32267761 C-22.29771162 283.63989934 -24.97099327 280.95411109 -27.64416504 278.26818848 C-29.29583053 276.61288813 -30.94763789 274.95772933 -32.59960938 273.30273438 C-33.33439011 272.56278732 -34.06917084 271.82284027 -34.82621765 271.06047058 C-39.38685969 266.49936781 -44.11262798 262.2067972 -49 258 C-54.43079271 253.11642862 -59.72449615 248.09146411 -64.984375 243.02490234 C-66.66009639 241.42626674 -68.35164356 239.84405586 -70.05859375 238.27880859 C-85.79651829 223.81701392 -85.79651829 223.81701392 -86.33630371 214.79476929 C-86.13895453 206.65280268 -86.13895453 206.65280268 -83.65039062 203.04150391 C-80.91059659 201.31251554 -78.13777596 201.82239004 -75 202 C-75.04640625 200.69804687 -75.0928125 199.39609375 -75.140625 198.0546875 C-75.17815847 196.32814804 -75.21455693 194.60158364 -75.25 192.875 C-75.28351563 192.0190625 -75.31703125 191.163125 -75.3515625 190.28125 C-75.43813266 184.6541895 -74.91139201 181.35300079 -71 177 C-64.491846 170.68911616 -57.43921179 171.26593599 -48.87890625 171.29296875 C-47.40915388 171.27983947 -45.9394195 171.26453147 -44.4697113 171.24714661 C-40.62112845 171.20742635 -36.77301899 171.19711468 -32.92425537 171.19311523 C-28.98907224 171.18375907 -25.05416442 171.14633019 -21.11914062 171.11132812 C-13.41275784 171.04688478 -5.70665829 171.01353631 2 171 C1.15435486 170.16101669 1.15435486 170.16101669 0.29162598 169.30508423 C-5.01116391 164.0423091 -10.30916804 158.77478476 -15.60181427 153.50181007 C-18.32321866 150.79085886 -21.0464588 148.08180582 -23.77392578 145.37695312 C-26.40424785 142.76830485 -29.02970512 140.15485194 -31.65180969 137.53794479 C-32.65484097 136.53861912 -33.65963561 135.54106023 -34.66618347 134.54527664 C-36.07177542 133.1541265 -37.4706337 131.75618259 -38.86914062 130.35791016 C-39.66856079 129.56293121 -40.46798096 128.76795227 -41.29162598 127.94888306 C-43 126 -43 126 -43 124 C-44.32 123.34 -45.64 122.68 -47 122 C-46.49455957 115.30291433 -44.96123127 109.06541854 -42 103 C-39 101 -39 101 -36.5 101.3125 C-34.65095738 101.82098672 -32.81927613 102.39357462 -31 103 C-30.83129395 102.4750293 -30.66258789 101.95005859 -30.48876953 101.40917969 C-28.80603887 96.25869746 -26.94943995 91.20105728 -24.99291992 86.14892578 C-17.07711586 65.622117 -10.14181745 44.63592751 -6 23 C-7.17949219 22.78730469 -7.17949219 22.78730469 -8.3828125 22.5703125 C-11 22 -11 22 -12.875 20.875 C-15.03906142 17.26823096 -13.31432081 13.26303302 -12.359375 9.42578125 C-10.13660654 1.32686427 -8.84885109 -1.96032183 0 0 Z " fill="#4590C5" transform="translate(198,125)"/>
<path d="M0 0 C4.16017768 1.17592463 8.26302466 2.51403011 12.37109375 3.859375 C13.56622086 4.24563049 14.76134796 4.63188599 15.99269104 5.02984619 C19.16563948 6.05630436 22.33694588 7.08754841 25.50750732 8.12133789 C29.92302866 9.55961846 34.34169121 10.98822627 38.75959778 12.41915894 C41.19510236 13.20815726 43.63039752 13.99780236 46.06547546 14.78811646 C54.69222967 17.58584684 63.33527626 20.32232395 72 23 C74.77561924 23.86175413 77.54541161 24.73590275 80.3125 25.625 C82.13201172 26.20121094 82.13201172 26.20121094 83.98828125 26.7890625 C88.54177574 28.61990983 88.54177574 28.61990983 90 31 C89.8046875 33.26953125 89.8046875 33.26953125 89 36 C88.71382812 37.07636719 88.42765625 38.15273437 88.1328125 39.26171875 C87.80023438 40.39222656 87.46765625 41.52273437 87.125 42.6875 C86.63386719 44.39486328 86.63386719 44.39486328 86.1328125 46.13671875 C85 49 85 49 82 51 C79.36 50.67 76.72 50.34 74 50 C70.37 58.91 66.74 67.82 63 77 C65.2275 77.515625 67.455 78.03125 69.75 78.5625 C77.49139288 80.41584194 84.91107297 82.97037744 92.34667969 85.80102539 C93.55952637 86.24949829 93.55952637 86.24949829 94.796875 86.70703125 C95.51198242 86.9800708 96.22708984 87.25311035 96.96386719 87.53442383 C99.34218098 88.0782421 100.72043636 87.81479248 103 87 C103.33 86.67 103.66 86.34 104 86 C110.26149342 86.4509479 115.80151828 88.02693957 121.73046875 90.01953125 C122.64274734 90.31937424 123.55502594 90.61921722 124.49494934 90.92814636 C127.39478837 91.88272695 130.29120402 92.84722909 133.1875 93.8125 C136.05936641 94.76253478 138.93191388 95.71048533 141.80459595 96.65805054 C143.66113763 97.27050559 145.51740348 97.8837975 147.37338257 98.49795532 C153.36234275 100.47582229 159.36797279 102.37481037 165.40356445 104.20581055 C169.93757488 105.59265925 174.4167078 107.13227696 178.90625 108.65625 C182.24873341 109.77228634 185.61360617 110.80478141 188.984375 111.83203125 C195.93799422 113.96152712 202.84445956 116.21943616 209.74316406 118.51928711 C211.78864494 119.20036754 213.83569703 119.87658503 215.8828125 120.55273438 C217.18759708 120.98668738 218.49228837 121.42092102 219.796875 121.85546875 C220.96573242 122.24371826 222.13458984 122.63196777 223.33886719 123.03198242 C226 124 226 124 227 125 C226.88611091 132.06112362 225.16256141 138.31119454 223.0625 145 C222.79751709 145.84933105 222.53253418 146.69866211 222.25952148 147.57373047 C220.25960652 153.74039348 220.25960652 153.74039348 218 156 C211.74632868 156.25582211 205.65086667 154.17020013 199.8046875 152.19140625 C198.9475264 151.90932816 198.0903653 151.62725006 197.20722961 151.33662415 C194.42711215 150.41988296 191.65116448 149.49113514 188.875 148.5625 C186.9291133 147.91911303 184.98290187 147.27670739 183.03637695 146.63525391 C179.14854522 145.35334738 175.26198272 144.06771095 171.37646484 142.77880859 C164.32476491 140.44220848 157.25842907 138.15270514 150.1875 135.875 C148.39916748 135.29588867 148.39916748 135.29588867 146.57470703 134.70507812 C140.20025881 132.64721876 133.81638528 130.62621092 127.41694641 128.64764404 C123.89194663 127.55769654 120.36884954 126.46165467 116.84561157 125.36602783 C114.29785964 124.57731599 111.74706747 123.79905188 109.19604492 123.02099609 C107.63574964 122.53663283 106.07560209 122.05179333 104.515625 121.56640625 C103.79842789 121.3511882 103.08123077 121.13597015 102.34230042 120.91423035 C95.86446266 118.87666265 95.86446266 118.87666265 94 116 C94 114.68 94 113.36 94 112 C93.11183594 111.8040625 92.22367188 111.608125 91.30859375 111.40625 C78.88723171 108.49832266 66.98956578 104.33061603 55 100 C54.81171631 101.18734741 54.81171631 101.18734741 54.61962891 102.39868164 C53.58007885 108.81773177 52.30946789 115.03733219 50.5859375 121.30859375 C50.00792957 123.96357686 49.89191445 126.29294829 50 129 C51.98 129.99 53.96 130.98 56 132 C56.61861838 138.80480218 54.60216347 144.74151194 52 151 C50 153 50 153 47.27783203 153.24853516 C43.73136481 152.97963127 40.91277706 152.18780516 37.5546875 151.0234375 C36.32419678 150.60336426 35.09370605 150.18329102 33.82592773 149.75048828 C33.18195038 149.52621155 32.53797302 149.30193481 31.8744812 149.07086182 C28.47368265 147.88731188 25.06253159 146.73428186 21.65234375 145.578125 C20.97919632 145.34912506 20.30604889 145.12012512 19.61250305 144.88418579 C14.58528314 143.17992132 9.53495169 141.60327236 4.4375 140.125 C-4.73440509 137.43661316 -13.84297038 134.55223959 -22.94308472 131.63153076 C-24.6380976 131.08858446 -26.33399463 130.54839013 -28.03079224 130.01104736 C-30.42930454 129.25068244 -32.82432853 128.48016765 -35.21875 127.70703125 C-35.94392319 127.47908371 -36.66909637 127.25113617 -37.41624451 127.01628113 C-41.10030781 125.81370045 -44.07401656 124.57250576 -47 122 C-46.49455957 115.30291433 -44.96123127 109.06541854 -42 103 C-39 101 -39 101 -36.5 101.3125 C-34.65095738 101.82098672 -32.81927613 102.39357462 -31 103 C-30.83129395 102.4750293 -30.66258789 101.95005859 -30.48876953 101.40917969 C-28.80603887 96.25869746 -26.94943995 91.20105728 -24.99291992 86.14892578 C-17.07711586 65.622117 -10.14181745 44.63592751 -6 23 C-6.78632813 22.85820312 -7.57265625 22.71640625 -8.3828125 22.5703125 C-11 22 -11 22 -12.875 20.875 C-15.03906142 17.26823096 -13.31432081 13.26303302 -12.359375 9.42578125 C-10.13660654 1.32686427 -8.84885109 -1.96032183 0 0 Z " fill="#FDD25B" transform="translate(198,125)"/>
<path d="M0 0 C1.40015569 -0.00514391 2.8003049 -0.01242875 4.20043945 -0.02168274 C7.98774269 -0.04014374 11.77433887 -0.02729312 15.56161237 -0.00759244 C19.5319631 0.00883637 23.50227054 -0.00002455 27.47264099 -0.00511169 C34.13796233 -0.00962742 40.80300255 0.00620596 47.46826172 0.03417969 C55.16705383 0.06624256 62.86533942 0.06620917 70.56416756 0.04896492 C77.98113052 0.0330861 85.39790831 0.03984119 92.8148632 0.05690193 C95.96667364 0.0637627 99.11833522 0.0627501 102.27014351 0.05535698 C105.98284823 0.04767998 109.69497832 0.05986548 113.40758514 0.08720589 C115.41498534 0.09734523 117.42245465 0.0879224 119.42985535 0.07788086 C130.40815713 0.19416025 130.40815713 0.19416025 135.17358398 4.63110352 C143.05203251 13.57420725 140.17358398 14.59378977 140.17358398 30.63110352 C85.72358398 30.63110352 31.27358398 30.63110352 -24.82641602 30.63110352 C-24.82641602 10.24877099 -24.82641602 10.24877099 -19.39062595 3.97360325 C-13.62694038 -0.70892574 -7.1119919 -0.06383942 0 0 Z " fill="#FDD96F" transform="translate(147.826416015625,296.368896484375)"/>
<path d="M0 0 C6.25636638 0.33138546 11.82114126 2.03353443 17.73046875 4.01953125 C18.64274734 4.31937424 19.55502594 4.61921722 20.49494934 4.92814636 C23.39478837 5.88272695 26.29120402 6.84722909 29.1875 7.8125 C32.05936641 8.76253478 34.93191388 9.71048533 37.80459595 10.65805054 C39.66113763 11.27050559 41.51740348 11.8837975 43.37338257 12.49795532 C49.36234275 14.47582229 55.36797279 16.37481037 61.40356445 18.20581055 C65.93757488 19.59265925 70.4167078 21.13227696 74.90625 22.65625 C78.24873341 23.77228634 81.61360617 24.80478141 84.984375 25.83203125 C91.93799422 27.96152712 98.84445956 30.21943616 105.74316406 32.51928711 C107.78864494 33.20036754 109.83569703 33.87658503 111.8828125 34.55273438 C113.18759708 34.98668738 114.49228837 35.42092102 115.796875 35.85546875 C116.96573242 36.24371826 118.13458984 36.63196777 119.33886719 37.03198242 C122 38 122 38 123 39 C122.88611091 46.06112362 121.16256141 52.31119454 119.0625 59 C118.66502563 60.27399658 118.66502563 60.27399658 118.25952148 61.57373047 C116.25960652 67.74039348 116.25960652 67.74039348 114 70 C107.74632868 70.25582211 101.65086667 68.17020013 95.8046875 66.19140625 C94.9475264 65.90932816 94.0903653 65.62725006 93.20722961 65.33662415 C90.42711215 64.41988296 87.65116448 63.49113514 84.875 62.5625 C82.9291133 61.91911303 80.98290187 61.27670739 79.03637695 60.63525391 C75.14854522 59.35334738 71.26198272 58.06771095 67.37646484 56.77880859 C60.32476491 54.44220848 53.25842907 52.15270514 46.1875 49.875 C44.99527832 49.48892578 43.80305664 49.10285156 42.57470703 48.70507812 C36.20025881 46.64721876 29.81638528 44.62621092 23.41694641 42.64764404 C19.89194663 41.55769654 16.36884954 40.46165467 12.84561157 39.36602783 C10.29785964 38.57731599 7.74706747 37.79905188 5.19604492 37.02099609 C3.63574964 36.53663283 2.07560209 36.05179333 0.515625 35.56640625 C-0.20157211 35.3511882 -0.91876923 35.13597015 -1.65769958 34.91423035 C-8.05458288 32.90212642 -8.05458288 32.90212642 -10 30 C-9.79904647 23.80259303 -7.53782754 18.01692893 -5.5625 12.1875 C-5.09360352 10.75760742 -5.09360352 10.75760742 -4.61523438 9.29882812 C-4.31037109 8.38939453 -4.00550781 7.47996094 -3.69140625 6.54296875 C-3.41498291 5.71821045 -3.13855957 4.89345215 -2.85375977 4.04370117 C-2 2 -2 2 0 0 Z " fill="#CB5249" transform="translate(302,211)"/>
<path d="M0 0 C0.69928975 -0.00326884 1.39857951 -0.00653768 2.11905986 -0.00990558 C4.46824886 -0.0172031 6.81681869 -0.00301331 9.16596985 0.01104736 C10.84799303 0.01025669 12.53001602 0.00816004 14.21203613 0.00485229 C18.78671667 -0.00029081 23.36117301 0.01327432 27.93581748 0.0303793 C32.72337027 0.04540358 37.51092001 0.0442411 42.29849243 0.04504395 C50.34452646 0.04873955 58.39047534 0.06371715 66.43647766 0.08624268 C76.7522041 0.11506434 87.06786175 0.12546135 97.38362408 0.12992477 C106.25929039 0.13391271 115.13494185 0.14641739 124.01059747 0.16027164 C126.85887827 0.16436247 129.70715855 0.16729238 132.5554409 0.17006683 C137.04106599 0.17497989 141.52665 0.18521691 146.01225471 0.19950485 C147.65531416 0.20400766 149.29837912 0.20686171 150.9414444 0.20791245 C153.19155362 0.20967347 155.44156213 0.21759613 157.69165039 0.22705078 C158.94876674 0.23002544 160.20588308 0.23300011 161.50109386 0.23606491 C172.42384964 0.62805801 172.42384964 0.62805801 175.1632843 3.36749268 C175.36185402 6.24091329 175.44157376 8.99611256 175.4132843 11.86749268 C175.42101868 12.65253174 175.42875305 13.4375708 175.4367218 14.24639893 C175.41659218 20.1141848 175.41659218 20.1141848 173.1632843 22.36749268 C170.75911691 22.56476571 168.47006532 22.63685446 166.06477356 22.62145996 C164.95564252 22.62613993 164.95564252 22.62613993 163.82410479 22.63091445 C161.33356915 22.63892481 158.84327511 22.6325591 156.35273743 22.62628174 C154.57245744 22.62899026 152.79217858 22.6325504 151.01190186 22.63690186 C146.16697141 22.64604471 141.32212583 22.64247381 136.47719383 22.63614368 C131.41588989 22.63109348 126.3545934 22.6357724 121.29328918 22.63891602 C112.79242137 22.64255853 104.29158826 22.6377491 95.79072571 22.62823486 C85.95115455 22.61734977 76.11166626 22.62087515 66.27209711 22.63188767 C57.83641934 22.64095244 49.40076657 22.6422498 40.96508551 22.63701034 C35.92140182 22.63388616 30.87775713 22.63349351 25.83407593 22.64008331 C21.09320239 22.64584439 16.35243608 22.64188269 11.61157417 22.6302948 C9.86762737 22.62764156 8.1236716 22.62842455 6.37972832 22.63282013 C4.00696044 22.63825098 1.6345405 22.63147175 -0.73820496 22.62145996 C-1.43527668 22.6259214 -2.13234839 22.63038285 -2.8505435 22.63497949 C-7.60841549 22.59579288 -7.60841549 22.59579288 -9.8367157 20.36749268 C-10.06223911 17.51183909 -10.16100333 14.78495757 -10.1492157 11.92999268 C-10.16532898 11.15333252 -10.18144226 10.37667236 -10.19804382 9.57647705 C-10.20289558 3.94359028 -10.20289558 3.94359028 -8.74130535 1.64412308 C-5.85524299 -0.29038021 -3.44958878 -0.00403036 0 0 Z " fill="#374F5B" transform="translate(122.83671569824219,326.63250732421875)"/>
<path d="M0 0 C4.73723149 3.95667578 9.22223354 8.07720437 13.57788086 12.44848633 C14.19337799 13.06223114 14.80887512 13.67597595 15.44302368 14.30831909 C17.45279976 16.31373527 19.45894527 18.32273712 21.46484375 20.33203125 C22.86716861 21.7336819 24.26964183 23.13518413 25.67225647 24.5365448 C28.59799157 27.46081134 31.52192423 30.38686498 34.44458008 33.31420898 C38.19964823 37.07500569 41.95923053 40.83125277 45.72014523 44.58620167 C48.61028793 47.47274299 51.49805976 50.36164666 54.38510323 53.25128746 C55.77152574 54.63837878 57.15869622 56.0247229 58.54661369 57.41031837 C60.47612493 59.33730664 62.40242993 61.26744218 64.32788086 63.19848633 C64.90598007 63.77456131 65.48407928 64.35063629 66.07969666 64.94416809 C70 68.88573122 70 68.88573122 70 70 C63.6250682 69.42851165 58.03357062 67.89968006 51.98828125 65.83984375 C51.05702927 65.53051407 50.12577728 65.22118439 49.16630554 64.90248108 C46.21263361 63.92118603 43.26223877 62.93055059 40.3125 61.9375 C36.41552957 60.62562661 32.5154997 59.32351158 28.61328125 58.02734375 C27.7236116 57.72424789 26.83394196 57.42115204 25.91731262 57.10887146 C25.08261948 56.83180862 24.24792633 56.55474579 23.38793945 56.26928711 C22.65928177 56.02359482 21.93062408 55.77790253 21.17988586 55.52476501 C18.67550647 54.92188451 16.56661337 54.77690677 14 55 C13.34 55.66 12.68 56.32 12 57 C5.25693611 55.98854042 -0.89661128 53.65146397 -7.27734375 51.3046875 C-12.20885215 49.57633094 -17.19339501 48.17579778 -22.234375 46.796875 C-25 46 -25 46 -27 45 C-25.30960543 38.44770865 -22.98025168 32.19754062 -20.4375 25.9375 C-20.13255615 25.1751001 -19.8276123 24.4127002 -19.51342773 23.62719727 C-17.24098776 18.12049388 -17.24098776 18.12049388 -15 17 C-12.66666667 17.33333333 -10.33333333 17.66666667 -8 18 C-5.60462437 17.08476651 -5.60462437 17.08476651 -4.74609375 13.69140625 C-4.30234577 12.31751987 -3.86647358 10.94107089 -3.4375 9.5625 C-1.07992327 2.15984655 -1.07992327 2.15984655 0 0 Z " fill="#4690C4" transform="translate(288,157)"/>
<path d="M0 0 C1.84904262 0.50848672 3.68072387 1.08107462 5.5 1.6875 C5.83 1.0275 6.16 0.3675 6.5 -0.3125 C6.5 0.6775 6.5 1.6675 6.5 2.6875 C7.4273999 2.89487793 7.4273999 2.89487793 8.37353516 3.10644531 C19.05344405 5.62925844 29.43569808 9.07752119 39.875 12.4375 C41.75379332 13.03941512 43.63269903 13.64097952 45.51171875 14.2421875 C49.25933113 15.4416765 53.00633242 16.64304744 56.75292969 17.84570312 C65.99627671 20.81075347 75.24839786 23.74832971 84.5 26.6875 C84.83 26.0275 85.16 25.3675 85.5 24.6875 C85.995 26.1725 85.995 26.1725 86.5 27.6875 C89.50007271 29.39605022 89.50007271 29.39605022 92.5 30.6875 C93.11861838 37.49230218 91.10216347 43.42901194 88.5 49.6875 C86.5 51.6875 86.5 51.6875 83.77783203 51.93603516 C80.23136481 51.66713127 77.41277706 50.87530516 74.0546875 49.7109375 C72.82419678 49.29086426 71.59370605 48.87079102 70.32592773 48.43798828 C69.68195038 48.21371155 69.03797302 47.98943481 68.3744812 47.75836182 C64.97368265 46.57481188 61.56253159 45.42178186 58.15234375 44.265625 C57.47919632 44.03662506 56.80604889 43.80762512 56.11250305 43.57168579 C51.08528314 41.86742132 46.03495169 40.29077236 40.9375 38.8125 C31.76559491 36.12411316 22.65702962 33.23973959 13.55691528 30.31903076 C11.8619024 29.77608446 10.16600537 29.23589013 8.46920776 28.69854736 C6.07069546 27.93818244 3.67567147 27.16766765 1.28125 26.39453125 C0.55607681 26.16658371 -0.16909637 25.93863617 -0.91624451 25.70378113 C-4.60030781 24.50120045 -7.57401656 23.26000576 -10.5 20.6875 C-9.99455957 13.99041433 -8.46123127 7.75291854 -5.5 1.6875 C-2.5 -0.3125 -2.5 -0.3125 0 0 Z " fill="#FBD970" transform="translate(161.5,226.3125)"/>
<path d="M0 0 C4.16017768 1.17592463 8.26302466 2.51403011 12.37109375 3.859375 C13.56622086 4.24563049 14.76134796 4.63188599 15.99269104 5.02984619 C19.16563948 6.05630436 22.33694588 7.08754841 25.50750732 8.12133789 C29.92302866 9.55961846 34.34169121 10.98822627 38.75959778 12.41915894 C41.19510236 13.20815726 43.63039752 13.99780236 46.06547546 14.78811646 C54.69222967 17.58584684 63.33527626 20.32232395 72 23 C74.77561924 23.86175413 77.54541161 24.73590275 80.3125 25.625 C81.52550781 26.00914062 82.73851562 26.39328125 83.98828125 26.7890625 C88.54177574 28.61990983 88.54177574 28.61990983 90 31 C89.8046875 33.26953125 89.8046875 33.26953125 89 36 C88.71382813 37.07636719 88.42765625 38.15273437 88.1328125 39.26171875 C87.80023438 40.39222656 87.46765625 41.52273437 87.125 42.6875 C86.63386719 44.39486328 86.63386719 44.39486328 86.1328125 46.13671875 C85 49 85 49 82 51 C79.73828125 50.9765625 79.73828125 50.9765625 77.3125 50.625 C76.50425781 50.51414063 75.69601562 50.40328125 74.86328125 50.2890625 C74.24839844 50.19367188 73.63351562 50.09828125 73 50 C73 49.34 73 48.68 73 48 C72.46012451 47.91363281 71.92024902 47.82726562 71.36401367 47.73828125 C63.85630051 46.39715129 56.70782258 44.10864355 49.48199463 41.71768188 C47.27084862 40.98622147 45.05740846 40.26211748 42.84326172 39.53979492 C38.22686286 38.03253365 33.61325687 36.51684599 29 35 C23.88963457 33.31994159 18.77802888 31.64387874 13.66293335 29.97827148 C11.65691942 29.32292774 9.65329001 28.66063137 7.6496582 27.99804688 C6.43753662 27.60294922 5.22541504 27.20785156 3.9765625 26.80078125 C2.91518066 26.45184814 1.85379883 26.10291504 0.76025391 25.7434082 C-2.16729326 24.82662718 -2.16729326 24.82662718 -6 25 C-6 24.34 -6 23.68 -6 23 C-6.763125 22.896875 -7.52625 22.79375 -8.3125 22.6875 C-11.28160312 21.92796199 -12.4219701 21.63004984 -14 19 C-13.74586698 12.77374099 -12.16148663 5.45257595 -8.8359375 0.140625 C-5.93172438 -1.66369464 -3.18553579 -0.70570465 0 0 Z " fill="#FCD96F" transform="translate(198,125)"/>
<path d="M0 0 C13.40285573 2.38398134 26.24395218 7.39253162 39 12 C37.41281886 17.9480834 35.80127975 23.85831798 33.8125 29.6875 C33.46832031 30.70199219 33.12414062 31.71648437 32.76953125 32.76171875 C32.38861328 33.86966797 32.38861328 33.86966797 32 35 C23.43113175 33.76937043 15.57226123 31.35165046 7.4375 28.4375 C6.26380859 28.02564453 5.09011719 27.61378906 3.88085938 27.18945312 C-4.60423801 24.19788099 -4.60423801 24.19788099 -7 23 C-2.91489362 2.91489362 -2.91489362 2.91489362 0 0 Z " fill="#FCD96F" transform="translate(261,202)"/>
</svg>
